# xmcd
#
# Track frame offsets: 
#        150
#        13110
#        26808
#        40458
#        52498
#        64643
#        77580
#        89395
#        99468
#        110565
#        122395
#        132805
#
# Disc length: 1909 seconds
#
# Revision: 2
# Processed by: cddbd v1.5.2PL0 Copyright (c) Steve Scherf et al.
# Submitted via: ExactAudioCopy v0.99pb4
#
DISCID=9f07730c
DTITLE=Johnson, Robert - The Legendary Blues Singer
DYEAR=1992
DGENRE=Blues
TTITLE0=Kindhearted Woman Bues
TTITLE1=Sweet Home Chicago
TTITLE2=Terraplane Blues
TTITLE3=Phonograph Blues
TTITLE4=Cross Road Blues
TTITLE5=Preaching Blues (Up Jumped The Devil)
TTITLE6=I'm A Steady Rollin' Man
TTITLE7=Little Queen Of Spades
TTITLE8=Drunken Hearted Man
TTITLE9=Me And The Devil Blues
TTITLE10=Stop Breakin' Down Blues
TTITLE11=Love In Vain
EXTD=
EXTT0=
EXTT1=
EXTT2=
EXTT3=
EXTT4=
EXTT5=
EXTT6=
EXTT7=
EXTT8=
EXTT9=
EXTT10=
EXTT11=
PLAYORDER=
